<mxfile host="app.diagrams.net" modified="2024-06-25T03:26:13.496Z" agent="Mozilla/5.0 (Macintosh; Intel Mac OS X 10_15_7) AppleWebKit/537.36 (KHTML, like Gecko) Chrome/126.0.0.0 Safari/537.36" version="24.6.2" etag="EdPAaLT6X9IJBBjFvdu8" type="github">
  <diagram name="Page-1" id="jWM0_t3Kkj-wISH9xHbU">
    <mxGraphModel>
      <root>
        <mxCell id="0" />
        <mxCell id="1" parent="0" />
      </root>
    </mxGraphModel>
  </diagram>
</mxfile>
